<?xml version="1.0" encoding="UTF-8"?>
<svg version="1.1" viewBox="0 0 707.17 718.45" xmlns="http://www.w3.org/2000/svg">
 <g transform="translate(-9.6393 -172.28)">
  <g transform="matrix(1.3566,0,0,1.3566,-41.806,-225.87)">
   <rect transform="matrix(.89329 -.44949 .30782 .95144 0 0)" x="-100.84" y="727.79" width="142.07" height="63.246" ry="0" fill="#deaa87" stroke="#deaa87" stroke-opacity=".67308" stroke-width="1.4957"/>
   <path transform="matrix(.007536 -.89409 .54524 .0075687 175.56 405.73)" d="m-119.2 603.85a21.718 16.162 0 0 1 -21.718 16.162 21.718 16.162 0 0 1 -21.718 -16.162 21.718 16.162 0 0 1 21.718 -16.162 21.718 16.162 0 0 1 21.718 16.162z" fill="#e9c6af" stroke="#e9c6af" stroke-opacity=".67308" stroke-width="1.5"/>
   <rect transform="rotate(28.483)" x="587.95" y="326.6" width="140.33" height="51.438" ry="25.719" fill="#deaa87" stroke="#deaa87" stroke-opacity=".67308" stroke-width="1.5802"/>
   <rect x="136.41" y="575.63" width="140.33" height="51.438" ry="25.719" fill="#deaa87" stroke="#deaa87" stroke-opacity=".67308" stroke-width="1.5802"/>
   <rect transform="matrix(-.45072 .89266 -.89266 -.45072 0 0)" x="371.2" y="-441.16" width="110.03" height="52.448" ry="25.215" fill="#deaa87" stroke="#deaa87" stroke-opacity=".67308" stroke-width="1.5802"/>
   <path transform="matrix(.87753 .87753 -.87753 .87753 768.02 23.587)" d="m-12.122 594.76a27.779 33.335 0 0 1 -27.779 33.335 27.779 33.335 0 0 1 -27.779 -33.335 27.779 33.335 0 0 1 27.779 -33.335 27.779 33.335 0 0 1 27.779 33.335z" fill="#e9c6af" stroke="#e9c6af" stroke-opacity=".67308" stroke-width="1.5"/>
   <path transform="matrix(1,0,0,1.127,91.924,-66.6)" d="m117.18 441.72a32.325 31.82 0 0 1 -32.325 31.82 32.325 31.82 0 0 1 -32.325 -31.82 32.325 31.82 0 0 1 32.325 -31.82 32.325 31.82 0 0 1 32.325 31.82z" fill="#deaa87" stroke-width="0"/>
   <path d="m448.57 452.36a136.43 131.43 0 0 1 -136.43 131.43 136.43 131.43 0 0 1 -136.43 -131.43 136.43 131.43 0 0 1 136.43 -131.43 136.43 131.43 0 0 1 136.43 131.43z" fill="#deaa87" stroke-width="0"/>
   <path transform="matrix(1.8484,0,0,1.1608,638.84,-103.68)" d="m-115.71 518.79a61.429 60.714 0 0 1 -61.429 60.714 61.429 60.714 0 0 1 -61.429 -60.714 61.429 60.714 0 0 1 61.429 -60.714 61.429 60.714 0 0 1 61.429 60.714z" fill="#e9c6af" stroke-width="0"/>
   <path transform="matrix(1.1316,0,0,1,620.14,-50)" d="m-248.57 467.36a50.714 52.143 0 0 1 -50.714 52.143 50.714 52.143 0 0 1 -50.714 -52.143 50.714 52.143 0 0 1 50.714 -52.143 50.714 52.143 0 0 1 50.714 52.143z" fill="#e9c6af" stroke-width="0"/>
   <path transform="matrix(.38092 0 0 -1.055 271.21 1121.1)" d="m165 610.58a59.286 11.786 0 0 1 -51.358 11.68 59.286 11.786 0 0 1 -65.093 -8.5564" fill="#e9c6af" stroke="#333" stroke-opacity=".67308" stroke-width="2.3662"/>
   <path transform="matrix(.93029 0 0 1 631.6 -50)" d="m-248.57 467.36a50.714 52.143 0 0 1 -50.714 52.143 50.714 52.143 0 0 1 -50.714 -52.143 50.714 52.143 0 0 1 50.714 -52.143 50.714 52.143 0 0 1 50.714 52.143z" fill="#e9c6af" stroke-width="0"/>
   <path transform="translate(514.29,-130.71)" d="m-228.57 559.51a7.1429 14.286 0 0 1 -7.1429 14.286 7.1429 14.286 0 0 1 -7.1429 -14.286 7.1429 14.286 0 0 1 7.1429 -14.286 7.1429 14.286 0 0 1 7.1429 14.286z" fill="#666" stroke-width="0"/>
   <path transform="translate(578.29,-131.43)" d="m-228.57 559.51a7.1429 14.286 0 0 1 -7.1429 14.286 7.1429 14.286 0 0 1 -7.1429 -14.286 7.1429 14.286 0 0 1 7.1429 -14.286 7.1429 14.286 0 0 1 7.1429 14.286z" fill="#666" stroke-width="0"/>
   <path transform="translate(249.86,-107.86)" d="m54.286 582.36a1.4286 2.8571 0 0 1 -1.4286 2.8572 1.4286 2.8571 0 0 1 -1.4286 -2.8572 1.4286 2.8571 0 0 1 1.4286 -2.8571 1.4286 2.8571 0 0 1 1.4286 2.8571z" fill="#666" stroke-width="0"/>
   <path transform="translate(267.86,-107.86)" d="m54.286 582.36a1.4286 2.8571 0 0 1 -1.4286 2.8572 1.4286 2.8571 0 0 1 -1.4286 -2.8572 1.4286 2.8571 0 0 1 1.4286 -2.8571 1.4286 2.8571 0 0 1 1.4286 2.8571z" fill="#666" stroke-width="0"/>
   <path transform="translate(214.01,-97.571)" d="m164.09 612.64a59.286 11.786 0 0 1 -55.634 9.7113 59.286 11.786 0 0 1 -59.903 -8.6497" fill="#e9c6af" stroke="#4d4d4d" stroke-opacity=".67308" stroke-width="1.5"/>
   <path transform="matrix(.99016 0 0 1.1467 309.02 -93.146)" d="m77.859 538.04a10 14.286 0 0 1 -9.2812 -14.759 10 14.286 0 0 1 9.9936 -13.776" fill="#e9c6af" stroke="#333" stroke-opacity=".67308" stroke-width="1.5"/>
   <path transform="matrix(1,0,0,1.2456,110,-143.12)" d="m66.896 482.33a21.429 20.357 0 0 1 -20.611 -11.742 21.429 20.357 0 0 1 3.8289 -22.54 21.429 20.357 0 0 1 23.453 -4.9861l-7.8518 18.941z" fill="#e9c6af" stroke-width="0"/>
   <path transform="matrix(1,0,0,1.127,361.92,-66.6)" d="m117.18 441.72a32.325 31.82 0 0 1 -32.325 31.82 32.325 31.82 0 0 1 -32.325 -31.82 32.325 31.82 0 0 1 32.325 -31.82 32.325 31.82 0 0 1 32.325 31.82z" fill="#deaa87" stroke-width="0"/>
   <path transform="matrix(1,0,0,1.2456,380,-143.12)" d="m87.143 462.01a21.429 20.357 0 0 1 -21.429 20.357 21.429 20.357 0 0 1 -21.429 -20.357 21.429 20.357 0 0 1 21.429 -20.357 21.429 20.357 0 0 1 21.429 20.357z" fill="#e9c6af" stroke-width="0"/>
   <path transform="matrix(.77089 0 0 1.0077 143.87 -21.673)" d="m35.355 455.36c-1.5363-2.4448 2.4575-3.2832 4.0028-2.5154 3.9377 1.9567 3.358 7.4496 0.89038 10.302-4.32 4.9937-12.138 3.8857-16.385-0.56499-6.1408-6.435-4.4542-16.815 1.9734-22.369 5.3677-4.6385 13.093-5.6215 19.62-3.0352" fill="#e9c6af" stroke="#666" stroke-width="1.7018"/>
   <path transform="matrix(-1,0,0,1.127,531.63,-66.6)" d="m117.18 441.72a32.325 31.82 0 0 1 -32.325 31.82 32.325 31.82 0 0 1 -32.325 -31.82 32.325 31.82 0 0 1 32.325 -31.82 32.325 31.82 0 0 1 32.325 31.82z" fill="#deaa87" stroke-width="0"/>
   <path transform="matrix(-1,0,0,1.2456,513.55,-143.12)" d="m66.896 482.33a21.429 20.357 0 0 1 -20.611 -11.742 21.429 20.357 0 0 1 3.8289 -22.54 21.429 20.357 0 0 1 23.453 -4.9861l-7.8518 18.941z" fill="#e9c6af" stroke-width="0"/>
   <path transform="matrix(-.77089 0 0 1.0077 479.68 -21.673)" d="m35.355 455.36c-1.5363-2.4448 2.4575-3.2832 4.0028-2.5154 3.9377 1.9567 3.358 7.4496 0.89038 10.302-4.32 4.9937-12.138 3.8857-16.385-0.56499-6.1408-6.435-4.4542-16.815 1.9734-22.369 5.3677-4.6385 13.093-5.6215 19.62-3.0352" fill="#e9c6af" stroke="#666" stroke-width="1.7018"/>
   <rect x="231.32" y="570.52" width="162.63" height="175.77" ry="58.927" fill="#deaa87" stroke="#deaa87" stroke-opacity=".67308" stroke-width="1.5"/>
   <rect x="261.39" y="588.14" width="101.49" height="142.5" ry="38.122" fill="#e9c6af" stroke="#deaa87" stroke-opacity=".67308" stroke-width="1.03"/>
   <rect transform="matrix(.73631 -.67664 .67664 .73631 0 0)" x="-121.78" y="751.75" width="110.03" height="52.448" ry="25.215" fill="#deaa87" stroke="#deaa87" stroke-opacity=".67308" stroke-width="1.5802"/>
   <path transform="matrix(1.1093 -.55645 .55645 1.1093 208.2 -107.88)" d="m-12.122 594.76a27.779 33.335 0 0 1 -27.779 33.335 27.779 33.335 0 0 1 -27.779 -33.335 27.779 33.335 0 0 1 27.779 -33.335 27.779 33.335 0 0 1 27.779 33.335z" fill="#e9c6af" stroke="#e9c6af" stroke-opacity=".67308" stroke-width="1.5"/>
   <g transform="matrix(.7285 -.68504 .68504 .7285 90.763 138)">
    <path d="m-7.5497 502.02c31.264 12.889 44.611 45.412 29.812 72.642s-52.14 38.855-83.403 25.966c-1.3469-0.55529 23.279-10.9 36.724-23.229 13.271-12.17 22.433-25.315 21.206-26.021" fill="#fd5" stroke="#fd5" stroke-opacity=".67308" stroke-width="1.5"/>
    <path d="m-7.5395 501 4.3125 49.156h31.531c-0.081-20.37-13.304-39.87-35.844-49.16z" fill="#fea" stroke="#fea" stroke-opacity=".67308" stroke-width="1.5"/>
    <path d="m-6.0609 548.3-29.294 12.122 38.386-9.0914" fill="#ffd42a" stroke="#ffd42a" stroke-width="1px"/>
    <path d="m4.0406 550.32 36.365 16.16-11.112-16.16" fill="#ffd42a" stroke="#fd5" stroke-width="1px"/>
   </g>
   <path transform="matrix(.89103 0 0 .69733 599.32 156.51)" d="m-119.2 603.85a21.718 16.162 0 0 1 -21.718 16.162 21.718 16.162 0 0 1 -21.718 -16.162 21.718 16.162 0 0 1 21.718 -16.162 21.718 16.162 0 0 1 21.718 16.162z" fill="#e9c6af" stroke="#e9c6af" stroke-opacity=".67308" stroke-width="1.5"/>
   <path transform="matrix(.007536 -.89409 .54524 .0075687 193.56 417.73)" d="m-119.2 603.85a21.718 16.162 0 0 1 -21.718 16.162 21.718 16.162 0 0 1 -21.718 -16.162 21.718 16.162 0 0 1 21.718 -16.162 21.718 16.162 0 0 1 21.718 16.162z" fill="#e9c6af" stroke="#e9c6af" stroke-opacity=".67308" stroke-width="1.5"/>
   <path d="m270 355.79c1.9454-4.5795 6.2564-7.9014 7.3213-12.897-9.7362-3.5912-17.501-12.496-19.118-22.825-2.1655-4.341-4.1386-9.5387-2.1696-14.318 3.4807-4.6095 11.329-4.5951 14.86-0.0544 4.7022 3.3195 9.6174 6.7016 15.344 7.9162 2.2524 5.2227 11.516 3.5669 11.82-2.1127-1.6451-4.825-2.2475-10.23-0.51799-15.119 3.507-3.9739 10.95-2.788 13.049 2.0789 3.6966 4.3063 6.8662 9.032 10.541 13.356 5.9453-1.2573 8.6239-7.9351 14.434-9.4687 5.6213 1.547 9.7197 7.2588 9.4889 13.068 4.0883 9.6544 7.1518 20.587 4.1898 30.997-1.7323 4.5034-4.9382 8.5342-9.2425 10.808" fill="#deaa87" stroke="#deaa87" stroke-width="1px"/>
   <path transform="matrix(.64723 0 0 .64227 449.88 264.6)" d="m-217.14 692.36c-1.0081-1.4594 1.4206-2.0805 2.3895-1.6505 2.4689 1.0958 2.2597 4.4823 0.82133 6.2988-2.518 3.18-7.3456 2.7086-10.071 0.0905-3.9404-3.7854-3.1823-10.201 0.61421-13.781 3.1704-2.99 7.8853-3.7994 11.96-2.3863" fill="none" stroke="#666" stroke-width="2.3265"/>
   <rect transform="matrix(-.86641 -.49933 -.27184 .96234 0 0)" x="-692.37" y="413.33" width="127.98" height="62.579" ry="0" fill="#deaa87" stroke="#deaa87" stroke-opacity=".67308" stroke-width="1.4121"/>
   <g fill="#e9c6af" stroke="#e9c6af" stroke-opacity=".67308" stroke-width="1.5">
    <path transform="translate(1.4286,-15.714)" d="m182.86 760.22a40.714 53.571 0 0 1 -40.714 53.571 40.714 53.571 0 0 1 -40.714 -53.571 40.714 53.571 0 0 1 40.714 -53.571 40.714 53.571 0 0 1 40.714 53.571z"/>
    <path transform="matrix(1.1936,0,0,1.3629,309.13,-215.58)" d="m-104.29 665.22a10 17.143 0 0 1 -10 17.143 10 17.143 0 0 1 -10 -17.143 10 17.143 0 0 1 10 -17.143 10 17.143 0 0 1 10 17.143z"/>
    <path transform="matrix(1.1936,0,0,1.3629,285.13,-207.58)" d="m-104.29 665.22a10 17.143 0 0 1 -10 17.143 10 17.143 0 0 1 -10 -17.143 10 17.143 0 0 1 10 -17.143 10 17.143 0 0 1 10 17.143z"/>
    <path transform="matrix(1.1936,0,0,1.3629,263.13,-203.58)" d="m-104.29 665.22a10 17.143 0 0 1 -10 17.143 10 17.143 0 0 1 -10 -17.143 10 17.143 0 0 1 10 -17.143 10 17.143 0 0 1 10 17.143z"/>
    <path transform="matrix(.78294 0 0 1.3734 197.91 -200.52)" d="m-104.29 665.22a10 17.143 0 0 1 -10 17.143 10 17.143 0 0 1 -10 -17.143 10 17.143 0 0 1 10 -17.143 10 17.143 0 0 1 10 17.143z"/>
   </g>
   <g transform="matrix(-1,0,0,1,606.86,5.7143)" fill="#e9c6af" stroke="#e9c6af" stroke-opacity=".67308" stroke-width="1.5">
    <path transform="translate(1.4286,-15.714)" d="m182.86 760.22a40.714 53.571 0 0 1 -40.714 53.571 40.714 53.571 0 0 1 -40.714 -53.571 40.714 53.571 0 0 1 40.714 -53.571 40.714 53.571 0 0 1 40.714 53.571z"/>
    <path transform="matrix(1.1936,0,0,1.3629,309.13,-215.58)" d="m-104.29 665.22a10 17.143 0 0 1 -10 17.143 10 17.143 0 0 1 -10 -17.143 10 17.143 0 0 1 10 -17.143 10 17.143 0 0 1 10 17.143z"/>
    <path transform="matrix(1.1936,0,0,1.3629,285.13,-207.58)" d="m-104.29 665.22a10 17.143 0 0 1 -10 17.143 10 17.143 0 0 1 -10 -17.143 10 17.143 0 0 1 10 -17.143 10 17.143 0 0 1 10 17.143z"/>
    <path transform="matrix(1.1936,0,0,1.3629,263.13,-203.58)" d="m-104.29 665.22a10 17.143 0 0 1 -10 17.143 10 17.143 0 0 1 -10 -17.143 10 17.143 0 0 1 10 -17.143 10 17.143 0 0 1 10 17.143z"/>
    <path transform="matrix(.78294 0 0 1.3734 197.91 -200.52)" d="m-104.29 665.22a10 17.143 0 0 1 -10 17.143 10 17.143 0 0 1 -10 -17.143 10 17.143 0 0 1 10 -17.143 10 17.143 0 0 1 10 17.143z"/>
   </g>
   <path transform="matrix(-1.5898,0,0,1.4099,164.97,-282.66)" d="m14.647 546.28c-4e-6 -1e-5 8e-6 -2e-5 1e-5 -2e-5 1.07e-4 -6e-5 2.38e-4 1.4e-4 2.68e-4 2.1e-4 5.97e-4 1e-3 -0.0015 3e-3 -0.0023 3e-3 -0.01001 4e-3 -0.01798-0.0107-0.01995-0.018-0.01556-0.0576 0.06085-0.0977 0.10471-0.10626 0.26441-0.0518 0.43042 0.28157 0.45799 0.49002 0.13505 1.0211-1.1082 1.6112-1.9345 1.675-3.4361 0.26545-5.2914-3.8206-5.3743-6.6596-0.30191-10.336 11.799-15.611 20.485-15.497 28.328 0.37154 42.113 33.209 40.89 57.354-3.0917 60.998-67.141 96.982-121.94 100.41" fill="none" stroke="#deaa87" stroke-width="14.771"/>
  </g>
 </g>
</svg>
