<?xml version="1.0" encoding="UTF-8"?>
<svg viewBox="0 0 1440 1440" xmlns="http://www.w3.org/2000/svg">
 <path d="m1256.1 401.25c-33.443-30.575-63.347 42.036-81.941 65.416-6.0569 7.6004-16.726 15.318-25.577 23.306-136.08-35.31-228.61-19.229-292.92 55.114-10.254 11.848-18.319 30.006-27.672 44.429-9.9091-14.389-20.038-22.214-34.688-29.23 2.7272-15.198 3.1202-28.718 5.5693-39.127 9.7028-41.13 17.926-86.632 14.265-145.48-3.1128-50.164-19.477-88.365-37.084-125.51-17.806-37.586-44.186-80.168-42.788-116.96 2.3346-61.306 78.945-86.316 128.77-56.854 0 0 24.485 10.578 29.72 34.456 9.0598 41.336 22.72 42.916 22.72 42.916 0.40051 0 0.77295-0.053574 0.99756-0.14296 13.374-4.6535 15.244-16.584 10.833-29.552-25.299-74.435-90.342-84.964-90.342-84.964-23.189-6.6027-33.83-4.2759-51.348 0-33.989 12.33-75.305 41.112-77.024 91.284-2.4977 73.06 49.837 111.62 71.314 188.27 19.974 71.253 7.899 139.67-5.7022 196.83-2.4237 10.187-5.2354 23.013-9.4043 36.787-11.652-1.0053-19.119-0.42358-30.128 3.3727-0.24731-17.563-6.5593-38.277-8.575-54.565-8.677-70.22-23.408-129.88-48.687-187.07-8.0775-18.288-17.778-57.473-30.549-76.871 3.457-7.0927 6.6411-16.754 9.6668-30.978 31.333-147.18-35.974-117.15-37.338-87.753-1.37 29.402 28.406 43.117-9.9297 102.48-30.21 46.773-5.3984 47.123 6.4983 45.161 36.553 64.597 62.824 145.74 74.486 233.47 3.0463 22.931 13.252 63.138 10.131 77.167-28.501 20.416-45.368 49.802-51.741 93.325-0.34448 2.3267-0.70142 4.4444-1.069 6.4267-1.0638 0.17859-2.1227 0.33929-3.1788 0.57416-20.418 4.4775-36.941 18.239-47.738 37.313-8.1287-5.7354-18.114-9.1262-28.929-9.0342-26.886 0.23724-48.493 21.615-48.268 47.758 0.22436 26.148 22.199 47.143 49.082 46.924 5.9394-0.063843 11.603-1.194 16.857-3.1356 0.16321 0.85712 0.31641 1.6942 0.50513 2.5641 2.8447 12.956 7.4166 24.959 13.287 35.673-37.846 55.261-74.835 124.1-106.22 184.97-2.9874 5.7635-3.8525 13.236 0 19.969 19.952 48.754 40.015 97.381 64.166 141.94-1.602 6.1409-2.3218 14.461-1.3804 25.748 3.7379 44.811 8.9247 51.21 18.668 57.879 11.825 8.0923 26.138-11.206 28.011-9.3332 7.2918 7.2894 22.401-6.2201 26.136-14.941 0.82654-1.9159 0.81372-5.7174 2.8064-5.4595 13.379 1.7273 17.754-19.908 10.264-28.144-13.696-15.071-30.922-31.69-47.865-39.099-15.18-49.161-55.693-89.682-65.661-144.49 13.295-28.312 42.37-70.056 72.445-110.49 18.79 24.225 59.078 35.808 101.53 26.506 19.125-4.197 36.063-12.065 49.557-22.168 11.938 81.93 29.519 184.18 45.084 227.52-6.4855 5.6894-13.867 15.382-16.275 30.993-6.8604 44.436-2.0716 51.934 6.0519 60.517 9.8555 10.389 27.914-5.4445 29.345-3.2246 5.5925 8.6643 23.207-1.3597 28.697-9.0928 1.2119-1.7041 1.9977-5.4191 3.8934-4.7507 12.708 4.5134 23.546-15.338 17.961-24.964-11.108-19.176-20.291-45.807-39.849-54.236 0.56653-28.07-13.119-75.963-15.879-97.486-8.4244-65.679-18.4-129.95-25.676-191.13-1.6713-14.025-1.1278-29.748-2.3038-44.543 34.463-17.997 61.882-58.137 69.146-107.79 3.9852-27.184 6.7379-42.043-1.0128-64.625 7.0136-19.88 11.251-40.316 21.436-53.789 26.914-35.606 68.692-72.87 124.65-76.246 50.973-3.0744 92.858 20.801 143.75 20.219 1.3519 1.3879 2.9568 2.7936 4.8475 4.2071 26.868 20.076 50.406-28.348 50.406-28.348 39.805-39.114 86.615-76.67 61.188-99.915z" fill="#3c2417"/>
 <g fill="#fed09e">
  <path d="m1194.9 501.16s-23.541 48.424-50.406 28.348c-31.192-23.319 14.224-43.482 29.656-62.842 18.594-23.38 48.498-95.991 81.941-65.416 25.424 23.248-21.385 60.803-61.191 99.91z"/>
  <path d="m721.48 708.25c12.126 5.1179 23.612 43.204 23.612 43.204 8.9806 1.6251 18.408 1.3547 27.674-3.6586 19.367-10.473 27.825-32.369 18.905-48.876-8.932-16.525-31.879-21.424-51.243-10.958-8.8657 4.7964-15.446 11.978-19.125 19.944l0.176 0.3444z"/>
  <path d="m585.65 792.96c-12.04-39.336 5.3807-65.878 5.3807-65.878-20.309-9.5701-43.283-3.5616-51.292 13.43-8.0012 16.971 1.967 38.512 22.28 48.09 7.6668 3.6102 15.706 5.0008 23.181 4.4343"/>
  <path d="m655.55 206.12c31.333-147.18-35.973-117.15-37.338-87.753-1.37 29.402 28.406 43.117-9.9296 102.48-38.351 59.374 11.973 43.939 11.973 43.939 15.395-14.142 26.075-15.349 35.295-58.67z"/>
  <path d="m573.44 1164.7s-22.406-1.8699-18.668 42.939c3.738 44.811 8.9247 51.21 18.668 57.879 11.825 8.0924 26.138-11.206 28.011-9.3326 7.2918 7.2889 22.401-6.2201 26.136-14.941 0.82654-1.9159 0.81384-5.7174 2.8064-5.4595 13.379 1.7272 17.755-19.908 10.264-28.144-19.005-20.918-44.809-44.811-67.217-42.941z"/>
  <path d="m806.77 1138.4s-22.704 8.2588-27.302 38.045c-6.8604 44.436-2.0716 51.935 6.0516 60.517 9.8558 10.389 27.914-5.4438 29.346-3.2245 5.5925 8.6642 23.207-1.3599 28.697-9.0929 1.2118-1.7041 1.9979-5.4191 3.8933-4.7506 12.708 4.5133 23.546-15.338 17.961-24.964-14.17-24.462-25.199-61.073-58.647-56.529z"/>
 </g>
 <path d="m781.84 850.83c-4.5618-20.786-21.745-36.535-45.138-44.549 1.602-10.233 1.3928-21.079-1.0078-32.032-9.3099-42.451-47.462-70.143-85.232-61.859-37.767 8.2841-60.841 49.401-51.531 91.85 2.3955 10.947 6.7507 20.898 12.488 29.519-17.895 17.063-26.916 38.548-22.357 59.338 8.2815 37.767 58.157 58.922 111.38 47.253 53.236-11.67 89.676-51.756 81.395-89.52zm-139.81-56.897c-5.8196 2.6177-13.578-2.0107-17.313-10.33-3.7454-8.3223-2.0718-17.185 3.7532-19.808 5.8118-2.6151 13.562 2.0104 17.308 10.328 3.7429 8.3251 2.0668 17.206-3.7478 19.811zm26.414-41.576c6.108-1.0638 12.371 5.5262 13.973 14.731 1.6177 9.2051-2.0383 17.553-8.141 18.612-6.108 1.0613-12.369-5.5362-13.966-14.739-1.6151-9.2077 2.0333-17.548 8.1336-18.604zm13.009 92.7c-11.149 2.4363-21.676-2.3524-23.505-10.718-1.8344-8.3578 5.7174-17.106 16.869-19.558 11.144-2.4388 21.663 2.3576 23.498 10.716 1.8319 8.3507-5.7174 17.109-16.862 19.561zm52.664 56.307c-11.297 9.1772-24.829 11.226-30.228 4.585-5.3934-6.6461-0.60974-19.462 10.685-28.644 11.3-9.1769 24.822-11.216 30.218-4.5744 5.3984 6.6411 0.61731 19.461-10.675 28.633z" fill="#fed09e"/>
</svg>
