<svg id="visual" viewBox="0 0 900 600" width="900" height="600" xmlns="http://www.w3.org/2000/svg" xmlns:xlink="http://www.w3.org/1999/xlink" version="1.1"><rect x="0" y="0" width="900" height="600" fill="#ffffff"></rect><path d="M0 156L21.5 144.8C43 133.7 86 111.3 128.8 107.3C171.7 103.3 214.3 117.7 257.2 126.7C300 135.7 343 139.3 385.8 131C428.7 122.7 471.3 102.3 514.2 104.5C557 106.7 600 131.3 642.8 150.5C685.7 169.7 728.3 183.3 771.2 175.7C814 168 857 139 878.5 124.5L900 110L900 0L878.5 0C857 0 814 0 771.2 0C728.3 0 685.7 0 642.8 0C600 0 557 0 514.2 0C471.3 0 428.7 0 385.8 0C343 0 300 0 257.2 0C214.3 0 171.7 0 128.8 0C86 0 43 0 21.5 0L0 0Z" fill="#fa7070" stroke-linecap="round" stroke-linejoin="miter"></path></svg>